<?xml version="1.0" encoding="UTF-8"?>
<svg version="1.1" xmlns="http://www.w3.org/2000/svg" width="206" height="188">
<path d="M0 0 C5.48691865 16.49939622 10.25757543 33.18833751 14.99902344 49.91357422 C15.25573822 50.81903488 15.512453 51.72449554 15.77694702 52.65739441 C16.26417588 54.37761445 16.75056301 56.09807319 17.23599243 57.81880188 C17.45379364 58.5891124 17.67159485 59.35942291 17.89599609 60.15307617 C18.08584076 60.82618332 18.27568542 61.49929047 18.47128296 62.1927948 C18.94342511 63.80662164 19.46827119 65.40481356 20 67 C22.67734485 60.22282579 24.72242135 53.33163222 26.72265625 46.328125 C27.43292253 43.86587959 28.1432096 41.40364019 28.85351562 38.94140625 C29.77663722 35.72924665 30.69914495 32.51691409 31.62054443 29.30426025 C32.87948083 24.91514455 34.14410937 20.52769638 35.41015625 16.140625 C35.74040298 14.98330872 36.07064972 13.82599243 36.41090393 12.63360596 C36.72140182 11.55858826 37.03189972 10.48357056 37.35180664 9.37597656 C37.62255508 8.43191956 37.89330353 7.48786255 38.17225647 6.51519775 C38.9345114 4.19899495 39.84491327 2.14280035 41 0 C48.17146977 -0.16846912 55.34309469 -0.32831375 62.51489258 -0.48217773 C64.95438993 -0.5355311 67.39384501 -0.59085513 69.83325195 -0.64819336 C73.34056485 -0.73029004 76.84796892 -0.80528742 80.35546875 -0.87890625 C81.99010323 -0.91945885 81.99010323 -0.91945885 83.65776062 -0.96083069 C84.67844131 -0.98092697 85.69912201 -1.00102325 86.75073242 -1.02172852 C88.09309212 -1.05170677 88.09309212 -1.05170677 89.46257019 -1.08229065 C92.0770762 -0.99750036 94.45428133 -0.58446062 97 0 C96.38103525 5.5495451 95.02214588 10.5347117 93.26171875 15.82421875 C92.98515442 16.670448 92.70859009 17.51667725 92.42364502 18.3885498 C91.51725194 21.156759 90.60248704 23.92212074 89.6875 26.6875 C89.04912675 28.63112385 88.41119283 30.57489205 87.77368164 32.51879883 C83.39084505 45.86422494 78.95270978 59.19142855 74.48901367 72.51000977 C71.7854225 80.58581354 69.1229991 88.67371199 66.50390625 96.77734375 C66.21072006 97.68379135 65.91753387 98.59023895 65.61546326 99.52415466 C64.19290868 103.92489013 62.77474474 108.32697442 61.36303711 112.73120117 C60.84628963 114.33385329 60.32944853 115.93647522 59.8125 117.5390625 C59.5869191 118.24800156 59.3613382 118.95694061 59.12892151 119.68736267 C57.3245245 125.26471272 55.19277149 130.51807129 53 136 C31.22 136 9.44 136 -13 136 C-15.0625 129.6475 -17.125 123.295 -19.25 116.75 C-24.97351487 99.15319362 -30.77192718 81.58319412 -36.64605713 64.03616333 C-39.62944546 55.12367894 -42.59934868 46.20670161 -45.5703125 37.29006958 C-46.75901364 33.7226785 -47.94801397 30.15538731 -49.13745117 26.58824158 C-49.68378673 24.94884379 -50.22954001 23.30925183 -50.7746582 21.66944885 C-51.93404595 18.18360408 -53.10215857 14.70185746 -54.29296875 11.2265625 C-54.66035156 10.15148437 -55.02773438 9.07640625 -55.40625 7.96875 C-55.71884766 7.06576172 -56.03144531 6.16277344 -56.35351562 5.23242188 C-57 3 -57 3 -57 0 C-51.13269827 -0.16958186 -45.26523727 -0.32989815 -39.39746094 -0.48217773 C-37.40748533 -0.53506158 -35.41757164 -0.59033775 -33.42773438 -0.64819336 C-22.20952146 -0.9726638 -11.1821797 -1.15036584 0 0 Z " fill="#A8A8A8" transform="translate(84,34)"/>
<path d="M0 0 C-0.61896475 5.5495451 -1.97785412 10.5347117 -3.73828125 15.82421875 C-4.01484558 16.670448 -4.29140991 17.51667725 -4.57635498 18.3885498 C-5.48274806 21.156759 -6.39751296 23.92212074 -7.3125 26.6875 C-7.95087325 28.63112385 -8.58880717 30.57489205 -9.22631836 32.51879883 C-13.60915495 45.86422494 -18.04729022 59.19142855 -22.51098633 72.51000977 C-25.2145775 80.58581354 -27.8770009 88.67371199 -30.49609375 96.77734375 C-30.78927994 97.68379135 -31.08246613 98.59023895 -31.38453674 99.52415466 C-32.80709132 103.92489013 -34.22525526 108.32697442 -35.63696289 112.73120117 C-38.17211232 120.60873107 -40.78006229 128.36812841 -44 136 C-48.62 136 -53.24 136 -58 136 C-57.51498702 127.70239125 -55.03853278 120.36096242 -52.36328125 112.5390625 C-51.88604581 111.1214986 -51.40967087 109.70364476 -50.93409729 108.28552246 C-49.9253929 105.28286643 -48.91132669 102.28210104 -47.89276123 99.28277588 C-46.30315273 94.60151922 -44.72561138 89.9162593 -43.15087891 85.22998047 C-42.624085 83.66250593 -42.09729057 82.09503156 -41.57049561 80.52755737 C-41.31058586 79.75410854 -41.05067612 78.98065971 -40.78289032 78.18377304 C-39.99685919 75.8460265 -39.20966295 73.50867514 -38.42218018 71.17141724 C-34.15980289 58.51511105 -29.98583412 45.83137455 -25.875 33.125 C-25.60217194 32.28205383 -25.32934387 31.43910767 -25.04824829 30.57061768 C-24.78522919 29.75792419 -24.52221008 28.94523071 -24.2512207 28.10791016 C-23.99736099 27.32354584 -23.74350128 26.53918152 -23.48194885 25.73104858 C-23.00067267 24.24398748 -22.51957391 22.75686894 -22.03868103 21.26968384 C-19.73749993 14.16470573 -17.37580596 7.08034632 -15 0 C-9.75717273 -0.72453659 -5.24017212 -1.20927049 0 0 Z " fill="#3C439D" transform="translate(181,34)"/>
<path d="M0 0 C6.93 0.495 6.93 0.495 14 1 C19.48691865 17.49939622 24.25757543 34.18833751 28.99902344 50.91357422 C29.25573822 51.81903488 29.512453 52.72449554 29.77694702 53.65739441 C30.26417588 55.37761445 30.75056301 57.09807319 31.23599243 58.81880188 C31.45379364 59.5891124 31.67159485 60.35942291 31.89599609 61.15307617 C32.08584076 61.82618332 32.27568542 62.49929047 32.47128296 63.1927948 C32.94342511 64.80662164 33.46827119 66.40481356 34 68 C34.72940542 74.85132614 33.21620643 80.62851331 31 87.0625 C30.71382812 87.92810547 30.42765625 88.79371094 30.1328125 89.68554688 C29.43366566 91.79463984 28.72268947 93.89888289 28 96 C27.34 96 26.68 96 26 96 C23.54782152 88.35201713 21.13940483 80.71485432 19.125 72.9375 C17.49743183 66.69414851 15.65705086 60.53831367 13.75 54.375 C10.52883014 43.95330911 7.59809106 33.464385 4.75292969 22.93505859 C3.18363047 17.15558125 1.57841973 11.47333883 -0.57324219 5.88037109 C-1 4 -1 4 0 0 Z " fill="#3C439C" transform="translate(70,33)"/>
<path d="M0 0 C1.94847691 5.84543074 -0.46331351 10.7236921 -3 16 C-3.66 16.33 -4.32 16.66 -5 17 C-1.92482916 5.47835991 -1.92482916 5.47835991 0 0 Z " fill="#515693" transform="translate(133,134)"/>
</svg>
